# xmcd
#
# Track frame offsets:
#	150
#	1435
#	10842
#	20095
#	31200
#	48702
#	58214
#	67234
#	78593
#	95566
#	109268
#	127565
#	138279
#	145947
#	155441
#	169460
#
# Disc length: 2464 seconds
#
# Revision: 1
# Processed by: cddbd v1.5.2PL0 Copyright (c) Steve Scherf et al.
# Submitted via: audiograbber 1.83.01
#
DISCID=df099e10
DTITLE=The Rockhouse Brothers - Howling With The Wolfman
DYEAR=2003
DGENRE=Folk-Rock
TTITLE0=Intro
TTITLE1=Mr. Bullfiddle
TTITLE2=03. Red Hot Mama
TTITLE3=You're The Devil In Disguise
TTITLE4=Choo Choo Ch'Boogie
TTITLE5=I Feel Fine
TTITLE6=A Little Less Conversation
TTITLE7=Diddley Daddy
TTITLE8=Mrs. Robinson
TTITLE9=Surfin' USA
TTITLE10=Stand By Me
TTITLE11=The Unknown Stuntman
TTITLE12=Tight Little Black Dress
TTITLE13=Blue Days, Blue Nights
TTITLE14=Wipe Out
TTITLE15=Bonus Track
EXTD=
EXTT0=
EXTT1=
EXTT2=
EXTT3=
EXTT4=
EXTT5=
EXTT6=
EXTT7=
EXTT8=
EXTT9=
EXTT10=
EXTT11=
EXTT12=
EXTT13=
EXTT14=
EXTT15=
PLAYORDER=
